<svg xmlns="http://www.w3.org/2000/svg" width="512" height="512" viewBox="0 0 512 512">
  <defs>
    <linearGradient id="bg" x1="0" y1="0" x2="1" y2="1">
      <stop offset="0" stop-color="#fbe6ee"/>
      <stop offset="0.5" stop-color="#efe3f7"/>
      <stop offset="1" stop-color="#e3efe4"/>
    </linearGradient>
    <linearGradient id="heart" x1="0" y1="0" x2="0" y2="1">
      <stop offset="0" stop-color="#f4a6c0"/>
      <stop offset="1" stop-color="#e98aac"/>
    </linearGradient>
  </defs>
  <rect width="512" height="512" rx="112" fill="url(#bg)"/>
  <path fill="url(#heart)" d="M256 392c-8 0-16-3-22-9l-120-118c-34-34-34-89 0-123 33-33 87-34 121-2 34-32 88-31 121 2 34 34 34 89 0 123L278 383c-6 6-14 9-22 9z"/>
  <path fill="none" stroke="#ffffff" stroke-width="22" stroke-linecap="round" stroke-linejoin="round" d="M210 256l34 34 64-74"/>
</svg>
